<?xml version="1.0" encoding="utf-8"?>
<!-- Generator: Adobe Illustrator 26.0.0, SVG Export Plug-In . SVG Version: 6.00 Build 0)  -->
<svg version="1.1" id="图层_1" xmlns="http://www.w3.org/2000/svg" xmlns:xlink="http://www.w3.org/1999/xlink" x="0px" y="0px"
	 viewBox="0 0 20 20" style="enable-background:new 0 0 20 20;" xml:space="preserve">
<g>
	<path d="M4.3,3.1c-0.8,2.8-1,5.6-0.3,8.3c0.9,4,4.2,6.4,8.5,5.5c1.6-0.3,3.2-0.7,4.6-1.6c0.2-0.1,0.4-0.1,0.7-0.1
		C16.5,17,15,18.2,13,19c-4.5,1.7-9.1-1.2-10.6-5.1c-1.2-3-1-6,0.5-8.9C3.3,4.3,3.8,3.7,4.3,3.1z"/>
	<path d="M17.5,4.6c-1.4-0.6-2.7-1.3-4.1-1.8c-1.9-0.6-3.5,0.1-5,1.4C5.9,6.2,5,10.7,7,14.2c-0.1,0-0.2,0.1-0.2,0.1
		c-0.4-0.9-0.9-1.7-1.2-2.6c-0.8-2.5-1-5.1-0.5-7.7c0.1-0.7,0-1.6,0.4-2c1.1-1,2.5-1.5,4.1-1.6c2.6-0.2,4.6,0.7,6.5,2.3
		C16.7,3.3,17.1,4.1,17.5,4.6z"/>
	<g>
		<path d="M18.3,10c0,0.1-0.1,0.3-0.2,0.3c-0.4,0.1-0.9,0.3-1.3,0.4c-0.5,0.1-0.9,0.3-1.4,0.4c-0.1,0-0.2,0.1-0.3,0.2
			c-0.4,0.8-0.9,1.6-1.3,2.4c0,0,0,0.1,0,0.1c-0.1,0.1-0.2,0.2-0.3,0.2c-0.1,0-0.2-0.1-0.3-0.2c-0.1-0.6-0.2-1.1-0.4-1.7
			c-0.4-1.7-0.7-3.4-1.1-5.1c0-0.1,0-0.1,0-0.2c0-0.2,0.3-0.4,0.5-0.2c0.3,0.2,0.6,0.3,1,0.5c1.7,0.9,3.3,1.7,5,2.6
			C18.2,9.8,18.3,9.9,18.3,10z"/>
	</g>
</g>
</svg>
